<svg xmlns="http://www.w3.org/2000/svg" xmlns:xlink="http://www.w3.org/1999/xlink" width="500" zoomAndPan="magnify" viewBox="0 0 375 374.999991" height="500" preserveAspectRatio="xMidYMid meet" version="1.0"><defs><g/><clipPath id="ee6b464288"><path d="M 124 72.4375 L 263.136719 72.4375 L 263.136719 213.4375 L 124 213.4375 Z M 124 72.4375 " clip-rule="nonzero"/></clipPath><clipPath id="0dc2704e25"><path d="M 111.636719 128 L 128 128 L 128 143 L 111.636719 143 Z M 111.636719 128 " clip-rule="nonzero"/></clipPath></defs><g clip-path="url(#ee6b464288)"><path fill="#4290b4" d="M 209.492188 116.398438 L 216.863281 133.410156 L 168.664062 72.457031 L 168.296875 75.65625 L 166.113281 108.816406 L 216.863281 133.410156 C 186.148438 120.558594 155.433594 107.707031 124.71875 94.851562 L 150.519531 128.589844 L 206.65625 134.261719 L 172.132812 133.792969 L 187.789062 148.628906 L 207.078125 142.644531 L 179.140625 153.714844 L 183.40625 181.042969 L 183.53125 181.171875 L 183.53125 213.394531 L 199.820312 206.308594 L 213.460938 213.078125 L 195.316406 170.550781 L 187.378906 178.488281 L 218.5625 137.949219 L 238.695312 128.589844 L 263.359375 131.425781 L 237.84375 122.355469 L 231.039062 114.132812 Z M 209.492188 116.398438 " fill-opacity="1" fill-rule="evenodd"/></g><path fill="#4290b4" d="M 118.832031 162.902344 L 132.292969 162.902344 L 132.292969 174.71875 L 118.832031 174.71875 Z M 118.832031 162.902344 " fill-opacity="1" fill-rule="evenodd"/><path fill="#d9d9d9" d="M 129.996094 178.199219 L 145.851562 178.199219 L 145.851562 192.117188 L 129.996094 192.117188 Z M 129.996094 178.199219 " fill-opacity="1" fill-rule="evenodd"/><path fill="#4290b4" d="M 116.371094 183.273438 L 124.296875 183.273438 L 124.296875 190.230469 L 116.371094 190.230469 Z M 116.371094 183.273438 " fill-opacity="1" fill-rule="evenodd"/><path fill="#4290b4" d="M 139.167969 155.253906 L 157.707031 155.253906 L 157.707031 171.527344 L 139.167969 171.527344 Z M 139.167969 155.253906 " fill-opacity="1" fill-rule="evenodd"/><path fill="#d9d9d9" d="M 125.464844 147.679688 L 134.734375 147.679688 L 134.734375 155.816406 L 125.464844 155.816406 Z M 125.464844 147.679688 " fill-opacity="1" fill-rule="evenodd"/><path fill="#4290b4" d="M 162.394531 166.335938 L 171.664062 166.335938 L 171.664062 174.472656 L 162.394531 174.472656 Z M 162.394531 166.335938 " fill-opacity="1" fill-rule="evenodd"/><path fill="#d9d9d9" d="M 160.800781 146.882812 L 174.066406 146.882812 L 174.066406 158.523438 L 160.800781 158.523438 Z M 160.800781 146.882812 " fill-opacity="1" fill-rule="evenodd"/><path fill="#d9d9d9" d="M 138.003906 132.753906 L 156.847656 132.753906 L 156.847656 149.300781 L 138.003906 149.300781 Z M 138.003906 132.753906 " fill-opacity="1" fill-rule="evenodd"/><g clip-path="url(#0dc2704e25)"><path fill="#4290b4" d="M 111.636719 128.125 L 127.492188 128.125 L 127.492188 142.042969 L 111.636719 142.042969 Z M 111.636719 128.125 " fill-opacity="1" fill-rule="evenodd"/></g><g fill="#4290b4" fill-opacity="1"><g transform="translate(86.605444, 257.325744)"><g><path d="M 21.484375 0 L 19.875 -4.875 L 9.484375 -4.875 L 7.875 0 L 0.375 0 L 10.4375 -29.046875 L 19.015625 -29.046875 L 29.046875 0 Z M 11.265625 -10.234375 L 18.109375 -10.234375 L 14.6875 -20.546875 Z M 11.265625 -10.234375 "/></g></g></g><g fill="#4290b4" fill-opacity="1"><g transform="translate(114.977231, 257.325744)"><g><path d="M 9.515625 -25.609375 C 8.722656 -24.816406 7.75 -24.421875 6.59375 -24.421875 C 5.445312 -24.421875 4.472656 -24.816406 3.671875 -25.609375 C 2.867188 -26.410156 2.46875 -27.394531 2.46875 -28.5625 C 2.46875 -29.726562 2.867188 -30.710938 3.671875 -31.515625 C 4.472656 -32.316406 5.445312 -32.71875 6.59375 -32.71875 C 7.75 -32.71875 8.722656 -32.316406 9.515625 -31.515625 C 10.316406 -30.710938 10.71875 -29.726562 10.71875 -28.5625 C 10.71875 -27.394531 10.316406 -26.410156 9.515625 -25.609375 Z M 3.09375 0 L 3.09375 -23.015625 L 10.140625 -23.015625 L 10.140625 0 Z M 3.09375 0 "/></g></g></g><g fill="#4290b4" fill-opacity="1"><g transform="translate(127.183621, 257.325744)"><g><path d="M 10.140625 -23.015625 L 10.140625 -18.734375 C 11.796875 -21.753906 14 -23.265625 16.75 -23.265625 L 16.75 -16.09375 L 15.015625 -16.09375 C 13.390625 -16.09375 12.171875 -15.707031 11.359375 -14.9375 C 10.546875 -14.164062 10.140625 -12.816406 10.140625 -10.890625 L 10.140625 0 L 3.09375 0 L 3.09375 -23.015625 Z M 10.140625 -23.015625 "/></g></g></g><g fill="#4290b4" fill-opacity="1"><g transform="translate(143.637552, 257.325744)"><g><path d="M 12.90625 -23.796875 C 12.03125 -23.796875 11.3125 -23.5625 10.75 -23.09375 C 10.1875 -22.632812 9.90625 -21.960938 9.90625 -21.078125 C 9.90625 -20.203125 10.164062 -19.492188 10.6875 -18.953125 C 11.207031 -18.421875 11.882812 -18.007812 12.71875 -17.71875 C 13.5625 -17.425781 14.5 -17.148438 15.53125 -16.890625 C 16.5625 -16.628906 17.582031 -16.3125 18.59375 -15.9375 C 19.613281 -15.570312 20.539062 -15.113281 21.375 -14.5625 C 22.21875 -14.007812 22.898438 -13.226562 23.421875 -12.21875 C 23.953125 -11.21875 24.21875 -10.019531 24.21875 -8.625 C 24.21875 -6.175781 23.21875 -4.078125 21.21875 -2.328125 C 19.226562 -0.585938 16.601562 0.28125 13.34375 0.28125 C 10.082031 0.28125 7.453125 -0.5 5.453125 -2.0625 C 3.460938 -3.625 2.46875 -5.851562 2.46875 -8.75 L 9.984375 -8.75 C 10.171875 -6.4375 11.351562 -5.28125 13.53125 -5.28125 C 14.550781 -5.28125 15.347656 -5.546875 15.921875 -6.078125 C 16.492188 -6.617188 16.78125 -7.300781 16.78125 -8.125 C 16.78125 -8.945312 16.519531 -9.617188 16 -10.140625 C 15.476562 -10.671875 14.796875 -11.085938 13.953125 -11.390625 C 13.117188 -11.691406 12.1875 -11.972656 11.15625 -12.234375 C 10.125 -12.492188 9.097656 -12.816406 8.078125 -13.203125 C 7.066406 -13.585938 6.140625 -14.046875 5.296875 -14.578125 C 4.460938 -15.117188 3.78125 -15.890625 3.25 -16.890625 C 2.726562 -17.890625 2.46875 -19.078125 2.46875 -20.453125 C 2.46875 -23.148438 3.472656 -25.3125 5.484375 -26.9375 C 7.492188 -28.5625 10.054688 -29.375 13.171875 -29.375 C 16.296875 -29.375 18.820312 -28.664062 20.75 -27.25 C 22.675781 -25.832031 23.679688 -23.597656 23.765625 -20.546875 L 16.09375 -20.546875 C 15.976562 -21.585938 15.640625 -22.390625 15.078125 -22.953125 C 14.515625 -23.515625 13.789062 -23.796875 12.90625 -23.796875 Z M 12.90625 -23.796875 "/></g></g></g><g fill="#4290b4" fill-opacity="1"><g transform="translate(169.287617, 257.325744)"><g><path d="M 12.875 0.28125 C 9.519531 0.28125 6.769531 -0.796875 4.625 -2.953125 C 2.476562 -5.109375 1.40625 -7.972656 1.40625 -11.546875 C 1.40625 -15.117188 2.46875 -17.960938 4.59375 -20.078125 C 6.726562 -22.203125 9.484375 -23.265625 12.859375 -23.265625 C 16.242188 -23.265625 19.050781 -22.21875 21.28125 -20.125 C 23.507812 -18.039062 24.625 -15.140625 24.625 -11.421875 C 24.625 -10.628906 24.570312 -9.890625 24.46875 -9.203125 L 8.625 -9.203125 C 8.757812 -8.179688 9.210938 -7.347656 9.984375 -6.703125 C 10.753906 -6.054688 11.582031 -5.734375 12.46875 -5.734375 C 13.363281 -5.734375 14.03125 -5.820312 14.46875 -6 C 14.914062 -6.175781 15.238281 -6.351562 15.4375 -6.53125 C 15.644531 -6.71875 15.914062 -7.015625 16.25 -7.421875 L 23.890625 -7.421875 C 23.222656 -5.109375 21.898438 -3.242188 19.921875 -1.828125 C 17.941406 -0.421875 15.59375 0.28125 12.875 0.28125 Z M 17.28125 -13.609375 C 17.175781 -14.679688 16.707031 -15.554688 15.875 -16.234375 C 15.050781 -16.910156 14.078125 -17.25 12.953125 -17.25 C 11.828125 -17.25 10.878906 -16.910156 10.109375 -16.234375 C 9.335938 -15.554688 8.851562 -14.679688 8.65625 -13.609375 Z M 17.28125 -13.609375 "/></g></g></g><g fill="#4290b4" fill-opacity="1"><g transform="translate(194.319106, 257.325744)"><g><path d="M 4.59375 -2.921875 C 2.46875 -5.066406 1.40625 -7.925781 1.40625 -11.5 C 1.40625 -15.082031 2.46875 -17.9375 4.59375 -20.0625 C 6.726562 -22.195312 9.488281 -23.265625 12.875 -23.265625 C 15.675781 -23.265625 18.050781 -22.566406 20 -21.171875 C 21.957031 -19.785156 23.253906 -17.800781 23.890625 -15.21875 L 16.25 -15.21875 C 15.59375 -16.59375 14.515625 -17.28125 13.015625 -17.28125 C 11.515625 -17.28125 10.398438 -16.75 9.671875 -15.6875 C 8.941406 -14.632812 8.578125 -13.238281 8.578125 -11.5 C 8.578125 -9.769531 8.941406 -8.375 9.671875 -7.3125 C 10.398438 -6.257812 11.46875 -5.734375 12.875 -5.734375 C 13.75 -5.734375 14.429688 -5.882812 14.921875 -6.1875 C 15.421875 -6.488281 15.863281 -7.023438 16.25 -7.796875 L 23.890625 -7.796875 C 23.253906 -5.316406 21.945312 -3.347656 19.96875 -1.890625 C 17.988281 -0.441406 15.625 0.28125 12.875 0.28125 C 9.488281 0.28125 6.726562 -0.785156 4.59375 -2.921875 Z M 4.59375 -2.921875 "/></g></g></g><g fill="#4290b4" fill-opacity="1"><g transform="translate(218.030976, 257.325744)"><g><path d="M 18.734375 -23.015625 L 25.78125 -23.015625 L 25.78125 0 L 18.734375 0 L 18.734375 -3.375 C 17.273438 -0.957031 14.945312 0.25 11.75 0.25 C 9.113281 0.25 6.976562 -0.628906 5.34375 -2.390625 C 3.707031 -4.148438 2.890625 -6.539062 2.890625 -9.5625 L 2.890625 -23.015625 L 9.90625 -23.015625 L 9.90625 -10.515625 C 9.90625 -9.035156 10.296875 -7.890625 11.078125 -7.078125 C 11.859375 -6.265625 12.9375 -5.859375 14.3125 -5.859375 C 15.6875 -5.859375 16.765625 -6.265625 17.546875 -7.078125 C 18.335938 -7.890625 18.734375 -9.035156 18.734375 -10.515625 Z M 18.734375 -23.015625 "/></g></g></g><g fill="#4290b4" fill-opacity="1"><g transform="translate(245.866668, 257.325744)"><g><path d="M 10.140625 -23.015625 L 10.140625 -18.734375 C 11.796875 -21.753906 14 -23.265625 16.75 -23.265625 L 16.75 -16.09375 L 15.015625 -16.09375 C 13.390625 -16.09375 12.171875 -15.707031 11.359375 -14.9375 C 10.546875 -14.164062 10.140625 -12.816406 10.140625 -10.890625 L 10.140625 0 L 3.09375 0 L 3.09375 -23.015625 Z M 10.140625 -23.015625 "/></g></g></g><g fill="#4290b4" fill-opacity="1"><g transform="translate(262.320604, 257.325744)"><g><path d="M 12.875 0.28125 C 9.519531 0.28125 6.769531 -0.796875 4.625 -2.953125 C 2.476562 -5.109375 1.40625 -7.972656 1.40625 -11.546875 C 1.40625 -15.117188 2.46875 -17.960938 4.59375 -20.078125 C 6.726562 -22.203125 9.484375 -23.265625 12.859375 -23.265625 C 16.242188 -23.265625 19.050781 -22.21875 21.28125 -20.125 C 23.507812 -18.039062 24.625 -15.140625 24.625 -11.421875 C 24.625 -10.628906 24.570312 -9.890625 24.46875 -9.203125 L 8.625 -9.203125 C 8.757812 -8.179688 9.210938 -7.347656 9.984375 -6.703125 C 10.753906 -6.054688 11.582031 -5.734375 12.46875 -5.734375 C 13.363281 -5.734375 14.03125 -5.820312 14.46875 -6 C 14.914062 -6.175781 15.238281 -6.351562 15.4375 -6.53125 C 15.644531 -6.71875 15.914062 -7.015625 16.25 -7.421875 L 23.890625 -7.421875 C 23.222656 -5.109375 21.898438 -3.242188 19.921875 -1.828125 C 17.941406 -0.421875 15.59375 0.28125 12.875 0.28125 Z M 17.28125 -13.609375 C 17.175781 -14.679688 16.707031 -15.554688 15.875 -16.234375 C 15.050781 -16.910156 14.078125 -17.25 12.953125 -17.25 C 11.828125 -17.25 10.878906 -16.910156 10.109375 -16.234375 C 9.335938 -15.554688 8.851562 -14.679688 8.65625 -13.609375 Z M 17.28125 -13.609375 "/></g></g></g></svg>